<?xml version="1.0" standalone="no"?>
<!DOCTYPE svg PUBLIC "-//W3C//DTD SVG 20010904//EN"
 "http://www.w3.org/TR/2001/REC-SVG-20010904/DTD/svg10.dtd">
<svg version="1.0" xmlns="http://www.w3.org/2000/svg"
 width="512.000000pt" height="512.000000pt" viewBox="0 0 512.000000 512.000000"
 preserveAspectRatio="xMidYMid meet">
<metadata>
Created by potrace 1.14, written by Peter Selinger 2001-2017
</metadata>
<g transform="translate(0.000000,512.000000) scale(0.100000,-0.100000)"
fill="#000000" stroke="none">
<path d="M1125 4839 c-114 -40 -209 -120 -261 -221 -57 -111 -54 -28 -54
-1735 0 -1117 3 -1587 11 -1625 28 -133 120 -252 241 -313 39 -19 76 -35 83
-35 6 0 22 -25 34 -56 46 -109 142 -204 251 -245 53 -19 56 -23 85 -87 42 -93
121 -171 221 -219 l79 -38 1057 -3 c1051 -2 1058 -2 1120 19 116 39 212 119
264 221 57 111 54 28 54 1735 0 1117 -3 1587 -11 1625 -28 133 -120 252 -241
313 -39 19 -76 35 -83 35 -6 0 -22 25 -34 56 -46 110 -143 204 -252 245 -51
19 -57 24 -72 67 -36 100 -147 210 -254 253 l-58 24 -1060 2 c-1047 2 -1061 2
-1120 -18z m335 -380 c0 -15 -109 -189 -118 -189 -4 0 -29 34 -56 75 -52 80
-52 95 -1 115 32 14 175 12 175 -1z m224 -110 l77 -120 -96 -150 c-54 -82
-100 -149 -104 -149 -9 0 -191 285 -191 299 0 12 110 190 138 224 10 11 29 17
57 17 l41 0 78 -121z m216 110 c0 -15 -109 -189 -118 -189 -9 0 -122 178 -122
191 0 5 52 9 120 9 83 0 120 -3 120 -11z m167 -22 c11 -17 47 -72 78 -120 l57
-88 -97 -149 c-53 -83 -100 -150 -104 -150 -9 0 -191 285 -191 300 0 7 34 64
75 126 l75 114 42 0 c37 0 46 -4 65 -33z m279 16 c-12 -30 -111 -183 -119
-183 -8 0 -127 179 -127 192 0 4 57 8 126 8 114 0 126 -2 120 -17z m223 -98
c63 -99 72 -119 64 -138 -25 -54 -185 -288 -192 -281 -5 5 -50 73 -101 151
l-92 143 63 97 c97 151 88 142 139 143 l45 0 74 -115z m221 110 c0 -8 -111
-185 -120 -190 -7 -4 -120 169 -120 186 0 5 54 9 120 9 66 0 120 -2 120 -5z
m214 -101 c37 -58 70 -113 73 -122 3 -15 -147 -264 -181 -300 -9 -9 -32 20
-109 139 -82 127 -95 154 -86 170 5 11 39 65 75 119 l64 100 48 0 47 0 69
-106z m182 91 c24 -10 33 -19 28 -27 -4 -7 -30 -46 -57 -87 l-49 -74 -59 92
c-33 50 -59 95 -59 101 0 16 156 12 196 -5z m-1917 -143 c28 -43 51 -82 51
-87 0 -14 -112 -175 -122 -175 -11 0 -10 283 2 314 5 14 11 26 13 26 3 0 28
-35 56 -78z m1996 56 c3 -13 4 -95 3 -183 l-3 -160 -62 97 c-35 53 -63 101
-63 108 0 16 99 160 110 160 5 0 12 -10 15 -22z m-1821 -328 l96 -150 -98
-150 c-53 -82 -99 -150 -102 -150 -3 1 -35 48 -72 106 l-68 105 0 90 0 89 68
105 c37 58 70 105 73 105 4 0 50 -67 103 -150z m440 0 l95 -150 -95 -147 c-52
-82 -98 -149 -102 -150 -7 -2 -185 272 -190 293 -3 13 178 303 189 304 4 0 50
-67 103 -150z m440 1 l96 -150 -86 -138 c-48 -76 -92 -144 -98 -151 -10 -10
-32 17 -110 133 -53 81 -96 152 -94 159 4 19 182 296 189 296 4 0 50 -67 103
-149z m444 2 c78 -122 92 -150 84 -168 -25 -54 -184 -287 -191 -279 -5 5 -49
74 -100 152 l-92 144 97 149 c53 82 99 149 103 149 3 0 48 -67 99 -147z m419
34 c72 -112 72 -113 74 -187 l2 -75 -68 -105 c-37 -58 -71 -109 -75 -114 -5
-4 -54 60 -109 143 l-102 151 97 150 c53 83 99 150 103 150 3 0 38 -51 78
-113z m-1522 -372 c52 -80 95 -150 95 -156 0 -14 -183 -299 -193 -299 -6 0
-107 151 -176 263 l-23 37 97 150 c53 83 99 150 101 150 3 0 47 -65 99 -145z
m440 0 c52 -80 95 -150 95 -157 0 -14 -183 -298 -193 -298 -6 0 -107 150 -176
263 l-23 37 97 150 c54 83 99 150 102 150 2 0 46 -65 98 -145z m440 3 c50 -78
91 -147 93 -155 5 -18 -180 -304 -193 -300 -5 2 -52 69 -103 150 l-94 146 97
150 c53 83 100 151 104 151 3 -1 47 -64 96 -142z m440 0 c50 -78 91 -148 93
-155 5 -18 -180 -304 -193 -300 -5 2 -52 69 -103 150 l-94 146 98 150 c53 83
99 151 103 151 3 0 47 -64 96 -142z m285 -165 c0 -164 -2 -195 -13 -183 -31
35 -118 180 -115 192 5 21 112 188 121 188 4 0 7 -89 7 -197z m-2006 -84 c-31
-49 -61 -89 -65 -89 -11 0 -12 343 -2 354 4 3 33 -34 65 -84 l59 -91 -57 -90z
m2006 -242 c0 -68 0 -68 -75 -182 -41 -63 -78 -115 -82 -115 -9 0 -193 282
-193 295 0 5 43 75 97 157 l96 149 78 -118 c78 -118 78 -118 79 -186z m-1827
143 l96 -150 -95 -148 c-52 -81 -98 -148 -102 -149 -4 -2 -37 45 -74 103 l-68
105 0 89 0 89 68 105 c37 58 70 106 73 106 3 0 49 -68 102 -150z m440 0 l97
-149 -97 -151 c-53 -82 -99 -150 -102 -150 -11 1 -186 284 -186 301 0 16 175
298 186 299 3 0 49 -67 102 -150z m441 0 l96 -150 -97 -150 c-53 -83 -99 -150
-102 -150 -11 1 -186 283 -186 300 0 16 176 299 186 300 4 0 50 -68 103 -150z
m441 8 c50 -78 90 -149 90 -158 0 -16 -176 -299 -186 -300 -4 0 -50 68 -103
150 l-96 151 96 149 c53 83 99 150 103 150 3 -1 47 -65 96 -142z m-1096 -344
c81 -125 92 -148 84 -167 -13 -28 -181 -287 -187 -287 -2 0 -47 67 -100 150
-86 132 -96 151 -86 171 29 52 180 279 187 279 5 0 50 -66 102 -146z m439 -6
l93 -146 -97 -151 c-53 -83 -100 -151 -103 -151 -7 1 -185 279 -189 297 -5 18
179 304 192 300 6 -2 52 -69 104 -149z m440 8 c50 -78 92 -148 92 -154 0 -21
-191 -305 -199 -296 -5 5 -50 73 -100 152 l-92 143 22 37 c69 111 170 262 176
262 5 0 50 -65 101 -144z m441 -1 c51 -79 91 -151 89 -158 -4 -19 -181 -296
-189 -297 -4 0 -50 68 -103 151 l-97 151 39 61 c105 167 153 237 160 237 5 0
50 -65 101 -145z m281 -150 c0 -107 -3 -195 -7 -195 -15 1 -124 184 -120 199
5 18 116 191 123 191 2 0 4 -88 4 -195z m-2006 -96 c-30 -49 -60 -89 -65 -89
-10 0 -13 343 -2 353 4 4 33 -34 65 -84 l59 -91 -57 -89z m180 -102 l96 -148
-97 -149 c-53 -83 -99 -150 -102 -150 -3 0 -36 47 -73 105 l-68 105 0 89 0 90
68 105 c37 58 70 105 74 103 4 -1 50 -69 102 -150z m437 11 c51 -79 93 -150
93 -158 1 -15 -174 -299 -185 -300 -11 0 -200 291 -197 304 4 19 182 295 189
296 4 0 49 -64 100 -142z m453 -18 c48 -74 85 -139 84 -146 -4 -17 -182 -293
-189 -294 -4 0 -50 67 -103 149 l-97 149 97 152 c79 123 99 149 110 138 7 -7
51 -74 98 -148z m432 14 c52 -80 94 -152 92 -158 -5 -19 -182 -296 -189 -296
-4 0 -50 67 -103 150 l-96 149 96 151 c54 82 99 150 101 150 2 0 46 -66 99
-146z m429 31 c75 -114 75 -114 75 -182 -1 -68 -1 -68 -79 -186 l-78 -118 -92
142 c-51 78 -95 148 -98 155 -5 14 176 304 190 304 4 0 41 -52 82 -115z
m-1527 -371 c51 -80 92 -151 90 -158 -4 -18 -182 -295 -189 -296 -4 0 -51 67
-104 150 l-97 150 23 37 c69 113 170 263 176 263 5 0 50 -66 101 -146z m439
-6 l94 -147 -97 -150 c-53 -83 -99 -151 -103 -151 -8 0 -185 278 -189 297 -4
17 180 304 192 300 5 -2 51 -69 103 -149z m441 7 c52 -80 92 -151 90 -158 -4
-19 -182 -296 -189 -297 -4 0 -50 67 -104 150 l-97 150 40 62 c104 166 153
238 160 238 4 0 49 -65 100 -145z m440 0 c52 -79 92 -151 90 -158 -4 -20 -181
-296 -189 -297 -4 0 -50 68 -104 150 l-96 151 52 82 c121 188 140 217 147 217
4 0 49 -65 100 -145z m282 -150 c0 -107 -3 -195 -7 -195 -10 0 -123 177 -123
191 0 11 119 199 126 199 2 0 4 -88 4 -195z m-2006 86 l57 -90 -59 -91 c-32
-50 -61 -87 -65 -84 -10 11 -9 354 2 354 4 0 34 -40 65 -89z m173 -274 c50
-78 93 -147 95 -153 3 -11 -180 -304 -191 -304 -3 0 -36 47 -73 104 l-68 104
0 91 0 90 68 105 c37 58 69 105 72 105 3 1 46 -63 97 -142z m448 -11 l95 -147
-96 -150 c-53 -82 -99 -149 -103 -149 -8 0 -191 286 -191 299 0 14 190 305
195 299 2 -2 47 -70 100 -152z m449 -6 c48 -74 85 -139 84 -145 -5 -18 -182
-295 -189 -295 -4 0 -50 67 -103 149 l-97 149 97 151 c78 121 100 149 110 139
6 -7 51 -74 98 -148z m422 28 c48 -73 91 -142 96 -154 8 -17 -5 -44 -84 -167
-51 -81 -96 -147 -99 -147 -4 0 -50 67 -103 149 l-97 149 97 151 c54 83 99
151 101 151 2 0 42 -59 89 -132z m439 17 c74 -115 75 -117 75 -182 0 -66 -1
-67 -77 -185 -59 -90 -80 -115 -89 -105 -15 17 -174 265 -180 282 -6 14 174
305 189 305 4 0 41 -52 82 -115z m-1530 -374 l96 -150 -71 -110 -72 -111 -56
0 -57 0 -67 104 c-38 57 -68 110 -68 117 0 14 182 299 191 299 4 0 50 -67 104
-149z m440 -1 l97 -149 -72 -111 -72 -110 -57 0 -56 0 -67 105 c-38 58 -68
110 -68 116 0 15 182 299 191 299 4 0 51 -67 104 -150z m443 5 c50 -79 92
-149 92 -154 0 -6 -30 -57 -67 -115 l-68 -106 -60 0 -60 0 -68 110 -69 111 53
82 c121 188 140 217 147 217 4 0 49 -65 100 -145z m440 0 c50 -79 92 -149 92
-154 0 -6 -30 -57 -67 -115 l-68 -106 -56 0 -56 0 -73 110 c-68 103 -72 111
-58 132 134 208 181 278 187 278 3 0 48 -65 99 -145z m282 -102 c0 -135 -11
-213 -31 -213 -13 0 -110 152 -105 165 10 28 117 185 126 185 6 0 10 -53 10
-137z m-2017 48 c73 -112 72 -98 15 -185 -37 -55 -54 -74 -62 -66 -15 15 -22
320 -7 320 5 0 30 -31 54 -69z m121 -319 c-65 -2 -92 1 -110 13 l-24 16 51 75
51 76 59 -88 59 -89 -86 -3z m415 0 c-62 -1 -114 0 -117 3 -3 2 21 44 52 91
l58 86 59 -88 59 -89 -111 -3z m501 88 c29 -44 51 -83 48 -86 -3 -2 -55 -3
-116 -2 l-111 3 55 87 c31 49 59 86 63 83 5 -2 32 -41 61 -85z m440 0 c29 -44
51 -83 48 -86 -3 -2 -55 -3 -116 -2 l-111 3 56 87 c30 48 59 86 63 83 4 -2 31
-41 60 -85z m430 13 c63 -97 58 -103 -78 -103 l-94 0 19 29 c75 116 98 151
101 151 1 0 25 -35 52 -77z"/>
</g>
</svg>
